<svg width="37" height="38" viewBox="0 0 37 38" fill="none" xmlns="http://www.w3.org/2000/svg">
<g filter="url(#filter0_d_35_2764)">
<mask id="mask0_35_2764" style="mask-type:alpha" maskUnits="userSpaceOnUse" x="0" y="0" width="37" height="36">
<rect x="0.125" width="36" height="36" fill="#D9D9D9"/>
</mask>
<g mask="url(#mask0_35_2764)">
<path d="M5 30.8655V10.6155H11V4.61548H25.25V16.6155H31.25V30.8655H20V24.8655H16.25V30.8655H5ZM7.25 28.6155H11V24.8655H7.25V28.6155ZM7.25 22.6155H11V18.8655H7.25V22.6155ZM7.25 16.6155H11V12.8655H7.25V16.6155ZM13.25 22.6155H17V18.8655H13.25V22.6155ZM13.25 16.6155H17V12.8655H13.25V16.6155ZM13.25 10.6155H17V6.86548H13.25V10.6155ZM19.25 22.6155H23V18.8655H19.25V22.6155ZM19.25 16.6155H23V12.8655H19.25V16.6155ZM19.25 10.6155H23V6.86548H19.25V10.6155ZM25.25 28.6155H29V24.8655H25.25V28.6155ZM25.25 22.6155H29V18.8655H25.25V22.6155Z" fill="#1C1B1F"/>
<path d="M5 30.8655V10.6155H11V4.61548H25.25V16.6155H31.25V30.8655H20V24.8655H16.25V30.8655H5ZM7.25 28.6155H11V24.8655H7.25V28.6155ZM7.25 22.6155H11V18.8655H7.25V22.6155ZM7.25 16.6155H11V12.8655H7.25V16.6155ZM13.25 22.6155H17V18.8655H13.25V22.6155ZM13.25 16.6155H17V12.8655H13.25V16.6155ZM13.25 10.6155H17V6.86548H13.25V10.6155ZM19.25 22.6155H23V18.8655H19.25V22.6155ZM19.25 16.6155H23V12.8655H19.25V16.6155ZM19.25 10.6155H23V6.86548H19.25V10.6155ZM25.25 28.6155H29V24.8655H25.25V28.6155ZM25.25 22.6155H29V18.8655H25.25V22.6155Z" fill="url(#paint0_linear_35_2764)"/>
</g>
</g>
<defs>
<filter id="filter0_d_35_2764" x="-4.875" y="-3" width="46" height="46" filterUnits="userSpaceOnUse" color-interpolation-filters="sRGB">
<feFlood flood-opacity="0" result="BackgroundImageFix"/>
<feColorMatrix in="SourceAlpha" type="matrix" values="0 0 0 0 0 0 0 0 0 0 0 0 0 0 0 0 0 0 127 0" result="hardAlpha"/>
<feOffset dy="2"/>
<feGaussianBlur stdDeviation="2.5"/>
<feComposite in2="hardAlpha" operator="out"/>
<feColorMatrix type="matrix" values="0 0 0 0 1 0 0 0 0 1 0 0 0 0 1 0 0 0 0.05 0"/>
<feBlend mode="normal" in2="BackgroundImageFix" result="effect1_dropShadow_35_2764"/>
<feBlend mode="normal" in="SourceGraphic" in2="effect1_dropShadow_35_2764" result="shape"/>
</filter>
<linearGradient id="paint0_linear_35_2764" x1="4.88176" y1="4.85197" x2="31.3682" y2="30.3925" gradientUnits="userSpaceOnUse">
<stop stop-color="#52D17C"/>
<stop offset="1" stop-color="white" stop-opacity="0.4"/>
</linearGradient>
</defs>
</svg>
