<svg width="36" height="38" viewBox="0 0 36 38" fill="none" xmlns="http://www.w3.org/2000/svg">
<g filter="url(#filter0_d_35_2752)">
<mask id="mask0_35_2752" style="mask-type:alpha" maskUnits="userSpaceOnUse" x="0" y="0" width="36" height="36">
<rect width="36" height="36" fill="#D9D9D9"/>
</mask>
<g mask="url(#mask0_35_2752)">
<path d="M11.0482 25.125H13.2979V18H11.0482V25.125ZM22.7021 25.125H24.9518V10.5H22.7021V25.125ZM16.875 25.125H19.125V21H16.875V25.125ZM16.875 18H19.125V15H16.875V18ZM7.96162 30.75C7.20387 30.75 6.5625 30.4875 6.0375 29.9625C5.5125 29.4375 5.25 28.7961 5.25 28.0384V7.96162C5.25 7.20387 5.5125 6.5625 6.0375 6.0375C6.5625 5.5125 7.20387 5.25 7.96162 5.25H28.0384C28.7961 5.25 29.4375 5.5125 29.9625 6.0375C30.4875 6.5625 30.75 7.20387 30.75 7.96162V28.0384C30.75 28.7961 30.4875 29.4375 29.9625 29.9625C29.4375 30.4875 28.7961 30.75 28.0384 30.75H7.96162Z" fill="url(#paint0_linear_35_2752)"/>
</g>
</g>
<defs>
<filter id="filter0_d_35_2752" x="-5" y="-3" width="46" height="46" filterUnits="userSpaceOnUse" color-interpolation-filters="sRGB">
<feFlood flood-opacity="0" result="BackgroundImageFix"/>
<feColorMatrix in="SourceAlpha" type="matrix" values="0 0 0 0 0 0 0 0 0 0 0 0 0 0 0 0 0 0 127 0" result="hardAlpha"/>
<feOffset dy="2"/>
<feGaussianBlur stdDeviation="2.5"/>
<feComposite in2="hardAlpha" operator="out"/>
<feColorMatrix type="matrix" values="0 0 0 0 1 0 0 0 0 1 0 0 0 0 1 0 0 0 0.05 0"/>
<feBlend mode="normal" in2="BackgroundImageFix" result="effect1_dropShadow_35_2752"/>
<feBlend mode="normal" in="SourceGraphic" in2="effect1_dropShadow_35_2752" result="shape"/>
</filter>
<linearGradient id="paint0_linear_35_2752" x1="5.13513" y1="5.47973" x2="30.8649" y2="30.2905" gradientUnits="userSpaceOnUse">
<stop stop-color="#52D17C"/>
<stop offset="1" stop-color="white" stop-opacity="0.4"/>
</linearGradient>
</defs>
</svg>
