<svg width="36" height="40" viewBox="0 0 36 40" fill="none" xmlns="http://www.w3.org/2000/svg">
<g filter="url(#filter0_d_35_3031)">
<mask id="mask0_35_3031" style="mask-type:alpha" maskUnits="userSpaceOnUse" x="0" y="0" width="36" height="36">
<rect width="36" height="36" fill="#D9D9D9"/>
</mask>
<g mask="url(#mask0_35_3031)">
<path d="M16.1108 22.125H19.8893L19.0414 17.3884C19.5124 17.1864 19.8916 16.8696 20.1791 16.4381C20.4666 16.0064 20.6104 15.527 20.6104 15C20.6104 14.2807 20.3551 13.6659 19.8446 13.1554C19.3341 12.6449 18.7192 12.3896 18 12.3896C17.2808 12.3896 16.6659 12.6449 16.1554 13.1554C15.6449 13.6659 15.3896 14.2807 15.3896 15C15.3896 15.527 15.5334 16.0064 15.8209 16.4381C16.1084 16.8696 16.4876 17.1864 16.9586 17.3884L16.1108 22.125ZM18 32.2211C14.7557 31.3364 12.0698 29.4267 9.942 26.4922C7.814 23.5577 6.75 20.277 6.75 16.65V8.01936L18 3.80774L29.25 8.01936V16.65C29.25 20.277 28.186 23.5577 26.058 26.4922C23.9303 29.4267 21.2443 31.3364 18 32.2211Z" fill="url(#paint0_linear_35_3031)"/>
</g>
</g>
<defs>
<filter id="filter0_d_35_3031" x="-5" y="-3" width="46" height="46" filterUnits="userSpaceOnUse" color-interpolation-filters="sRGB">
<feFlood flood-opacity="0" result="BackgroundImageFix"/>
<feColorMatrix in="SourceAlpha" type="matrix" values="0 0 0 0 0 0 0 0 0 0 0 0 0 0 0 0 0 0 127 0" result="hardAlpha"/>
<feOffset dy="2"/>
<feGaussianBlur stdDeviation="2.5"/>
<feComposite in2="hardAlpha" operator="out"/>
<feColorMatrix type="matrix" values="0 0 0 0 1 0 0 0 0 1 0 0 0 0 1 0 0 0 0.05 0"/>
<feBlend mode="normal" in2="BackgroundImageFix" result="effect1_dropShadow_35_3031"/>
<feBlend mode="normal" in="SourceGraphic" in2="effect1_dropShadow_35_3031" result="shape"/>
</filter>
<linearGradient id="paint0_linear_35_3031" x1="6.64865" y1="4.06372" x2="34.3242" y2="25.1968" gradientUnits="userSpaceOnUse">
<stop stop-color="#52D17C"/>
<stop offset="1" stop-color="white" stop-opacity="0.4"/>
</linearGradient>
</defs>
</svg>
