<svg width="45" height="36" viewBox="0 0 45 36" fill="none" xmlns="http://www.w3.org/2000/svg">
<g filter="url(#filter0_d_35_3045)">
<mask id="mask0_35_3045" style="mask-type:alpha" maskUnits="userSpaceOnUse" x="4" y="0" width="37" height="36">
<rect x="4.25" width="36" height="36" fill="#D9D9D9"/>
</mask>
<g mask="url(#mask0_35_3045)">
<path d="M5 26.6828V24.8539C5 23.8559 5.52113 23.0362 6.56337 22.3947C7.60588 21.7534 8.96463 21.4328 10.6396 21.4328C10.9164 21.4328 11.1951 21.4414 11.4759 21.4587C11.7566 21.4759 12.0394 21.5095 12.3241 21.5595C12.0319 22.027 11.815 22.5122 11.6735 23.0149C11.5323 23.5179 11.4616 24.0338 11.4616 24.5625V26.6828H5ZM14 26.6828V24.6203C14 23.918 14.1971 23.2762 14.5914 22.6947C14.9856 22.1129 15.5539 21.6058 16.2961 21.1733C17.0384 20.7405 17.9154 20.416 18.9271 20.1998C19.9386 19.9833 21.0444 19.875 22.2444 19.875C23.4674 19.875 24.5846 19.9833 25.5961 20.1998C26.6076 20.416 27.4845 20.7405 28.2267 21.1733C28.9692 21.6058 29.5338 22.1129 29.9202 22.6947C30.3068 23.2762 30.5 23.918 30.5 24.6203V26.6828H14ZM33.0384 26.6828V24.567C33.0384 24.0028 32.9716 23.471 32.8381 22.9718C32.7044 22.4728 32.5039 22.002 32.2366 21.5595C32.5309 21.5095 32.8121 21.4759 33.0804 21.4587C33.3486 21.4414 33.6135 21.4328 33.875 21.4328C35.55 21.4328 36.9062 21.7497 37.9437 22.3834C38.9813 23.0169 39.5 23.8404 39.5 24.8539V26.6828H33.0384ZM10.6355 19.9759C9.9285 19.9759 9.3245 19.7245 8.8235 19.2218C8.3225 18.719 8.072 18.1147 8.072 17.4087C8.072 16.6934 8.3235 16.0892 8.8265 15.5959C9.32925 15.1027 9.93363 14.856 10.6396 14.856C11.3549 14.856 11.9615 15.1027 12.4595 15.5959C12.9578 16.0892 13.2069 16.6949 13.2069 17.4132C13.2069 18.1102 12.9604 18.7115 12.4674 19.2173C11.9746 19.723 11.364 19.9759 10.6355 19.9759ZM33.875 19.9759C33.175 19.9759 32.5721 19.723 32.0664 19.2173C31.5606 18.7115 31.3078 18.1102 31.3078 17.4132C31.3078 16.6949 31.5606 16.0892 32.0664 15.5959C32.5721 15.1027 33.1759 14.856 33.8776 14.856C34.6009 14.856 35.2091 15.1027 35.7024 15.5959C36.1956 16.0892 36.4422 16.6934 36.4422 17.4087C36.4422 18.1147 36.1963 18.719 35.7043 19.2218C35.2123 19.7245 34.6025 19.9759 33.875 19.9759ZM22.2553 18.75C21.1748 18.75 20.2548 18.3714 19.4953 17.6142C18.7358 16.8572 18.356 15.9378 18.356 14.856C18.356 13.7525 18.7345 12.8277 19.4915 12.0814C20.2488 11.3349 21.1682 10.9617 22.25 10.9617C23.3533 10.9617 24.2781 11.3344 25.0246 12.0799C25.7709 12.8252 26.144 13.7488 26.144 14.8508C26.144 15.931 25.7714 16.851 25.0261 17.6108C24.2806 18.3703 23.357 18.75 22.2553 18.75Z" fill="url(#paint0_linear_35_3045)"/>
</g>
</g>
<defs>
<filter id="filter0_d_35_3045" x="-0.75" y="-3" width="46" height="46" filterUnits="userSpaceOnUse" color-interpolation-filters="sRGB">
<feFlood flood-opacity="0" result="BackgroundImageFix"/>
<feColorMatrix in="SourceAlpha" type="matrix" values="0 0 0 0 0 0 0 0 0 0 0 0 0 0 0 0 0 0 127 0" result="hardAlpha"/>
<feOffset dy="2"/>
<feGaussianBlur stdDeviation="2.5"/>
<feComposite in2="hardAlpha" operator="out"/>
<feColorMatrix type="matrix" values="0 0 0 0 1 0 0 0 0 1 0 0 0 0 1 0 0 0 0.05 0"/>
<feBlend mode="normal" in2="BackgroundImageFix" result="effect1_dropShadow_35_3045"/>
<feBlend mode="normal" in="SourceGraphic" in2="effect1_dropShadow_35_3045" result="shape"/>
</filter>
<linearGradient id="paint0_linear_35_3045" x1="4.84459" y1="11.1033" x2="17.1081" y2="37.0545" gradientUnits="userSpaceOnUse">
<stop stop-color="#52D17C"/>
<stop offset="1" stop-color="white" stop-opacity="0.4"/>
</linearGradient>
</defs>
</svg>
