<svg width="35" height="16" viewBox="0 0 35 16" fill="none" xmlns="http://www.w3.org/2000/svg">
<path d="M0 15.7211V13.8923C0 12.8943 0.521125 12.0745 1.56338 11.433C2.60588 10.7918 3.96463 10.4711 5.63963 10.4711C5.91638 10.4711 6.19513 10.4798 6.47588 10.497C6.75663 10.5143 7.03938 10.5479 7.32413 10.5979C7.03188 11.0654 6.815 11.5505 6.6735 12.0533C6.53225 12.5563 6.46163 13.0721 6.46163 13.6009V15.7211H0ZM9 15.7211V13.6586C9 12.9564 9.19712 12.3145 9.59137 11.733C9.98562 11.1513 10.5539 10.6441 11.2961 10.2116C12.0384 9.77888 12.9154 9.45438 13.9271 9.23813C14.9386 9.02163 16.0444 8.91338 17.2444 8.91338C18.4674 8.91338 19.5846 9.02163 20.5961 9.23813C21.6076 9.45438 22.4845 9.77888 23.2267 10.2116C23.9692 10.6441 24.5338 11.1513 24.9203 11.733C25.3068 12.3145 25.5 12.9564 25.5 13.6586V15.7211H9ZM28.0384 15.7211V13.6054C28.0384 13.0411 27.9716 12.5094 27.8381 12.0101C27.7044 11.5111 27.5039 11.0404 27.2366 10.5979C27.5309 10.5479 27.8121 10.5143 28.0804 10.497C28.3486 10.4798 28.6135 10.4711 28.875 10.4711C30.55 10.4711 31.9062 10.788 32.9437 11.4218C33.9812 12.0553 34.5 12.8788 34.5 13.8923V15.7211H28.0384ZM5.6355 9.01425C4.9285 9.01425 4.3245 8.76288 3.8235 8.26013C3.3225 7.75738 3.072 7.153 3.072 6.447C3.072 5.73175 3.3235 5.1275 3.8265 4.63425C4.32925 4.141 4.93363 3.89437 5.63963 3.89437C6.35488 3.89437 6.9615 4.141 7.4595 4.63425C7.95775 5.1275 8.20688 5.73325 8.20688 6.4515C8.20688 7.1485 7.96038 7.74988 7.46738 8.25563C6.97463 8.76138 6.364 9.01425 5.6355 9.01425ZM28.875 9.01425C28.175 9.01425 27.5721 8.76138 27.0664 8.25563C26.5606 7.74988 26.3077 7.1485 26.3077 6.4515C26.3077 5.73325 26.5606 5.1275 27.0664 4.63425C27.5721 4.141 28.1759 3.89437 28.8776 3.89437C29.6009 3.89437 30.2091 4.141 30.7024 4.63425C31.1956 5.1275 31.4423 5.73175 31.4423 6.447C31.4423 7.153 31.1963 7.75738 30.7043 8.26013C30.2123 8.76288 29.6025 9.01425 28.875 9.01425ZM17.2553 7.78838C16.1748 7.78838 15.2548 7.40975 14.4953 6.6525C13.7358 5.8955 13.356 4.97612 13.356 3.89437C13.356 2.79087 13.7345 1.866 14.4915 1.11975C15.2488 0.37325 16.1682 0 17.25 0C18.3533 0 19.2781 0.37275 20.0246 1.11825C20.7709 1.8635 21.144 2.78713 21.144 3.88913C21.144 4.96938 20.7714 5.88938 20.0261 6.64913C19.2806 7.40863 18.357 7.78838 17.2553 7.78838Z" fill="url(#paint0_linear_94_49)"/>
<defs>
<linearGradient id="paint0_linear_94_49" x1="-0.155406" y1="0.141632" x2="12.1081" y2="26.0928" gradientUnits="userSpaceOnUse">
<stop stop-color="#52D17C"/>
<stop offset="1" stop-color="white" stop-opacity="0.4"/>
</linearGradient>
</defs>
</svg>
