<svg width="39" height="40" viewBox="0 0 39 40" fill="none" xmlns="http://www.w3.org/2000/svg">
<g filter="url(#filter0_d_35_3052)">
<mask id="mask0_35_3052" style="mask-type:alpha" maskUnits="userSpaceOnUse" x="1" y="0" width="37" height="36">
<rect x="1.25" width="36" height="36" fill="#D9D9D9"/>
</mask>
<g mask="url(#mask0_35_3052)">
<path d="M14.6806 17.031L18.0069 13.6819L15.4164 11.0682L13.7229 12.7617L12.1423 11.181L13.8125 9.48755L11.5048 7.1798L8.15562 10.5289L14.6806 17.031ZM26.7069 29.0798L30.0556 25.7307L27.7479 23.4229L26.0548 25.0932L24.4741 23.5125L26.1444 21.8194L23.5452 19.2432L20.219 22.5694L26.7069 29.0798ZM25.0681 9.88279L27.4134 12.228L29.7733 9.86817L27.4048 7.50005L25.0681 9.88279ZM12.053 30.75H6.5V25.197L13.0771 18.6203L5 10.5289L11.5048 4.02417L19.6336 12.1384L25.8155 5.93367C26.0483 5.70092 26.304 5.5288 26.5828 5.4173C26.8615 5.3058 27.1529 5.25005 27.4569 5.25005C27.7606 5.25005 28.0519 5.3058 28.3306 5.4173C28.6096 5.5288 28.8654 5.70092 29.0979 5.93367L31.3164 8.21854C31.5491 8.45104 31.7188 8.7068 31.8253 8.9858C31.932 9.26455 31.9854 9.55579 31.9854 9.85954C31.9854 10.1635 31.932 10.4487 31.8253 10.7149C31.7188 10.9812 31.5491 11.2307 31.3164 11.4634L25.1634 17.6539L33.2259 25.7453L26.7211 32.25L18.6298 24.1729L12.053 30.75Z" fill="#1C1B1F"/>
<path d="M14.6806 17.031L18.0069 13.6819L15.4164 11.0682L13.7229 12.7617L12.1423 11.181L13.8125 9.48755L11.5048 7.1798L8.15562 10.5289L14.6806 17.031ZM26.7069 29.0798L30.0556 25.7307L27.7479 23.4229L26.0548 25.0932L24.4741 23.5125L26.1444 21.8194L23.5452 19.2432L20.219 22.5694L26.7069 29.0798ZM25.0681 9.88279L27.4134 12.228L29.7733 9.86817L27.4048 7.50005L25.0681 9.88279ZM12.053 30.75H6.5V25.197L13.0771 18.6203L5 10.5289L11.5048 4.02417L19.6336 12.1384L25.8155 5.93367C26.0483 5.70092 26.304 5.5288 26.5828 5.4173C26.8615 5.3058 27.1529 5.25005 27.4569 5.25005C27.7606 5.25005 28.0519 5.3058 28.3306 5.4173C28.6096 5.5288 28.8654 5.70092 29.0979 5.93367L31.3164 8.21854C31.5491 8.45104 31.7188 8.7068 31.8253 8.9858C31.932 9.26455 31.9854 9.55579 31.9854 9.85954C31.9854 10.1635 31.932 10.4487 31.8253 10.7149C31.7188 10.9812 31.5491 11.2307 31.3164 11.4634L25.1634 17.6539L33.2259 25.7453L26.7211 32.25L18.6298 24.1729L12.053 30.75Z" fill="url(#paint0_linear_35_3052)"/>
</g>
</g>
<defs>
<filter id="filter0_d_35_3052" x="-3.75" y="-3" width="46" height="46" filterUnits="userSpaceOnUse" color-interpolation-filters="sRGB">
<feFlood flood-opacity="0" result="BackgroundImageFix"/>
<feColorMatrix in="SourceAlpha" type="matrix" values="0 0 0 0 0 0 0 0 0 0 0 0 0 0 0 0 0 0 127 0" result="hardAlpha"/>
<feOffset dy="2"/>
<feGaussianBlur stdDeviation="2.5"/>
<feComposite in2="hardAlpha" operator="out"/>
<feColorMatrix type="matrix" values="0 0 0 0 1 0 0 0 0 1 0 0 0 0 1 0 0 0 0.05 0"/>
<feBlend mode="normal" in2="BackgroundImageFix" result="effect1_dropShadow_35_3052"/>
<feBlend mode="normal" in="SourceGraphic" in2="effect1_dropShadow_35_3052" result="shape"/>
</filter>
<linearGradient id="paint0_linear_35_3052" x1="4.87286" y1="4.27846" x2="33.353" y2="31.7415" gradientUnits="userSpaceOnUse">
<stop stop-color="#52D17C"/>
<stop offset="1" stop-color="white" stop-opacity="0.4"/>
</linearGradient>
</defs>
</svg>
