<svg width="208" height="24" viewBox="0 0 208 24" fill="none" xmlns="http://www.w3.org/2000/svg">
<g opacity="0.5">
<mask id="mask0_35_2782" style="mask-type:alpha" maskUnits="userSpaceOnUse" x="10" y="0" width="24" height="24">
<rect x="10" width="24" height="24" fill="#D9D9D9"/>
</mask>
<g mask="url(#mask0_35_2782)">
<path d="M13.5 21.5V13.7213H30.5V21.5H13.5ZM13.5 12.2213V4.5H17.1192C17.0987 4.625 17.0833 4.74692 17.073 4.86575C17.0628 4.98442 17.0577 5.1125 17.0577 5.25C17.0577 6.61733 17.5355 7.78292 18.491 8.74675C19.4465 9.71042 20.6162 10.1923 22 10.1923C23.3838 10.1923 24.5535 9.71042 25.509 8.74675C26.4645 7.78292 26.9423 6.61733 26.9423 5.25C26.9423 5.1125 26.9372 4.98442 26.927 4.86575C26.9167 4.74692 26.9012 4.625 26.8807 4.5H30.5V12.2213H13.5ZM21.25 8V6H19.25V4.5H21.25V2.5H22.75V4.5H24.75V6H22.75V8H21.25Z" fill="#FAFDFF"/>
</g>
</g>
<path d="M60.7676 19H58.4629V9.9375C58.4629 9.19531 58.5085 8.28711 58.5996 7.21289H58.5605C58.4173 7.82487 58.2904 8.26432 58.1797 8.53125L54 19H52.3984L48.209 8.60938C48.0918 8.30339 47.9681 7.83789 47.8379 7.21289H47.7988C47.8509 7.77279 47.877 8.6875 47.877 9.95703V19H45.7285V4.99609H49L52.6816 14.3223C52.9616 15.0384 53.1439 15.5723 53.2285 15.9238H53.2773C53.5182 15.1882 53.7135 14.6413 53.8633 14.2832L57.6133 4.99609H60.7676V19ZM63.5801 18.4434V16.0508C63.7949 16.2461 64.0488 16.4219 64.3418 16.5781C64.6413 16.7344 64.957 16.8678 65.2891 16.9785C65.6211 17.0827 65.9531 17.1641 66.2852 17.2227C66.6172 17.2812 66.9232 17.3105 67.2031 17.3105C68.1797 17.3105 68.9056 17.1478 69.3809 16.8223C69.8626 16.4967 70.1035 16.0247 70.1035 15.4062C70.1035 15.0742 70.0221 14.7878 69.8594 14.5469C69.7031 14.2995 69.4818 14.0749 69.1953 13.873C68.9089 13.6712 68.5703 13.4792 68.1797 13.2969C67.7956 13.1081 67.3822 12.9128 66.9395 12.7109C66.4642 12.457 66.0215 12.1999 65.6113 11.9395C65.2012 11.679 64.8431 11.3926 64.5371 11.0801C64.2376 10.7611 64 10.403 63.8242 10.0059C63.6549 9.60872 63.5703 9.14323 63.5703 8.60938C63.5703 7.95182 63.7168 7.38216 64.0098 6.90039C64.3092 6.41211 64.6999 6.01172 65.1816 5.69922C65.6699 5.38021 66.2233 5.14583 66.8418 4.99609C67.4603 4.83984 68.0918 4.76172 68.7363 4.76172C70.2012 4.76172 71.2689 4.92773 71.9395 5.25977V7.55469C71.1452 6.98177 70.123 6.69531 68.873 6.69531C68.528 6.69531 68.1829 6.72786 67.8379 6.79297C67.4993 6.85807 67.1934 6.96549 66.9199 7.11523C66.653 7.26497 66.4349 7.45703 66.2656 7.69141C66.0964 7.92578 66.0117 8.20898 66.0117 8.54102C66.0117 8.85352 66.0768 9.1237 66.207 9.35156C66.3372 9.57943 66.526 9.78776 66.7734 9.97656C67.0273 10.1654 67.3333 10.3509 67.6914 10.5332C68.056 10.709 68.4759 10.901 68.9512 11.1094C69.4395 11.3633 69.8984 11.6302 70.3281 11.9102C70.7643 12.1901 71.1452 12.4993 71.4707 12.8379C71.8027 13.1764 72.0632 13.554 72.252 13.9707C72.4473 14.3809 72.5449 14.8496 72.5449 15.377C72.5449 16.0866 72.4017 16.6855 72.1152 17.1738C71.8288 17.6621 71.4414 18.0592 70.9531 18.3652C70.4714 18.6712 69.9147 18.8926 69.2832 19.0293C68.6517 19.166 67.9844 19.2344 67.2812 19.2344C67.0469 19.2344 66.7572 19.2148 66.4121 19.1758C66.0736 19.1432 65.7253 19.0911 65.3672 19.0195C65.0091 18.9544 64.6706 18.873 64.3516 18.7754C64.0326 18.6777 63.7754 18.5671 63.5801 18.4434ZM88.4922 19H80.6309V4.99609H88.1797V6.96875H82.9551V10.9336H87.7695V12.8965H82.9551V17.0371H88.4922V19ZM99.0879 9L95.7578 14.0586L99.0488 19H96.4219L94.6641 15.9043C94.5534 15.7155 94.4232 15.4746 94.2734 15.1816H94.2344C94.2083 15.2402 94.0716 15.4811 93.8242 15.9043L92.0371 19H89.4199L92.8184 14.0977L89.5957 9H92.2324L93.9609 12.252C94.0911 12.4928 94.2181 12.7402 94.3418 12.9941H94.3711L96.6074 9H99.0879ZM107.652 18.541C106.852 19.0033 105.904 19.2344 104.811 19.2344C103.326 19.2344 102.128 18.7721 101.217 17.8477C100.305 16.9167 99.8496 15.7122 99.8496 14.2344C99.8496 12.5872 100.338 11.2656 101.314 10.2695C102.298 9.26693 103.609 8.76562 105.25 8.76562C106.161 8.76562 106.965 8.92513 107.662 9.24414V11.3535C106.965 10.8327 106.223 10.5723 105.436 10.5723C104.479 10.5723 103.694 10.8978 103.082 11.5488C102.47 12.1934 102.164 13.0397 102.164 14.0879C102.164 15.123 102.451 15.9401 103.023 16.5391C103.603 17.138 104.378 17.4375 105.348 17.4375C106.161 17.4375 106.93 17.1478 107.652 16.5684V18.541ZM118.375 14.6152H111.559C111.585 15.5397 111.868 16.2526 112.408 16.7539C112.955 17.2552 113.704 17.5059 114.654 17.5059C115.722 17.5059 116.702 17.1868 117.594 16.5488V18.375C116.682 18.9479 115.478 19.2344 113.98 19.2344C112.509 19.2344 111.354 18.7819 110.514 17.877C109.68 16.9655 109.264 15.6862 109.264 14.0391C109.264 12.4831 109.723 11.2168 110.641 10.2402C111.565 9.25716 112.711 8.76562 114.078 8.76562C115.445 8.76562 116.503 9.20508 117.252 10.084C118.001 10.9629 118.375 12.1836 118.375 13.7461V14.6152ZM116.188 13.0137C116.181 12.1999 115.989 11.5684 115.611 11.1191C115.234 10.6634 114.713 10.4355 114.049 10.4355C113.398 10.4355 112.844 10.6732 112.389 11.1484C111.939 11.6237 111.663 12.2454 111.559 13.0137H116.188ZM122.809 19H120.533V4.19531H122.809V19Z" fill="#FAFDFF"/>
<path d="M135.709 19.2344C134.166 19.2344 132.932 18.7689 132.008 17.8379C131.09 16.9004 130.631 15.6602 130.631 14.1172C130.631 12.4375 131.109 11.1257 132.066 10.1816C133.03 9.23763 134.326 8.76562 135.953 8.76562C137.516 8.76562 138.733 9.22461 139.605 10.1426C140.478 11.0605 140.914 12.3333 140.914 13.9609C140.914 15.556 140.442 16.8353 139.498 17.7988C138.561 18.7559 137.298 19.2344 135.709 19.2344ZM135.816 10.5723C134.931 10.5723 134.231 10.8815 133.717 11.5C133.202 12.1185 132.945 12.9714 132.945 14.0586C132.945 15.1068 133.206 15.9336 133.727 16.5391C134.247 17.138 134.944 17.4375 135.816 17.4375C136.708 17.4375 137.392 17.1413 137.867 16.5488C138.349 15.9564 138.59 15.1133 138.59 14.0195C138.59 12.9193 138.349 12.0697 137.867 11.4707C137.392 10.8717 136.708 10.5723 135.816 10.5723ZM152.135 19H149.859V14.625H145.504V19H143.229V9H145.504V12.9258H149.859V9H152.135V19ZM163.355 19H161.08V10.7285H159.039C158.753 13.821 158.261 15.9954 157.564 17.252C156.874 18.502 155.943 19.127 154.771 19.127C154.381 19.127 154.046 19.0716 153.766 18.9609V17.2715C153.993 17.3822 154.238 17.4375 154.498 17.4375C155.898 17.4375 156.796 14.625 157.193 9H163.355V19ZM173.99 19H171.793V17.4375H171.754C171.064 18.6354 170.051 19.2344 168.717 19.2344C167.734 19.2344 166.962 18.9674 166.402 18.4336C165.849 17.8997 165.572 17.1934 165.572 16.3145C165.572 14.4264 166.66 13.3262 168.834 13.0137L171.803 12.5938C171.803 11.168 171.126 10.4551 169.771 10.4551C168.58 10.4551 167.506 10.8652 166.549 11.6855V9.70312C167.604 9.07812 168.821 8.76562 170.201 8.76562C172.727 8.76562 173.99 10.0091 173.99 12.4961V19ZM171.803 14.0879L169.703 14.3809C169.052 14.4655 168.561 14.625 168.229 14.8594C167.903 15.0872 167.74 15.4909 167.74 16.0703C167.74 16.4935 167.89 16.8418 168.189 17.1152C168.495 17.3822 168.902 17.5156 169.41 17.5156C170.1 17.5156 170.67 17.2747 171.119 16.793C171.575 16.3047 171.803 15.6927 171.803 14.957V14.0879ZM185.846 19H183.795V11.666C183.665 11.9264 183.466 12.2878 183.199 12.75L178.99 19H176.764V9H178.844V16.1875C178.915 16.0182 179.068 15.7253 179.303 15.3086L183.57 9H185.846V19ZM185.191 4.18555C185.087 5.16211 184.684 5.93359 183.98 6.5C183.284 7.0599 182.408 7.33984 181.354 7.33984C180.273 7.33984 179.391 7.0599 178.707 6.5C178.03 5.93359 177.659 5.16211 177.594 4.18555H179.479C179.57 5.37044 180.204 5.96289 181.383 5.96289C181.904 5.96289 182.333 5.80664 182.672 5.49414C183.017 5.18164 183.229 4.74544 183.307 4.18555H185.191ZM197.721 19H195.445V14.625H191.09V19H188.814V9H191.09V12.9258H195.445V9H197.721V19Z" fill="#FAFDFF" fill-opacity="0.5"/>
</svg>
